<svg width="26" height="26" viewBox="0 0 26 26" fill="none" xmlns="http://www.w3.org/2000/svg">
<rect width="26" height="26" fill="white" fill-opacity="0.01"/>
<path fill-rule="evenodd" clip-rule="evenodd" d="M23.2381 7.57706H2.7615V5.39503H6.22785V5.84939C6.22785 6.31306 6.60343 6.68864 7.06709 6.68864C7.53051 6.68864 7.90634 6.31306 7.90634 5.84939V5.39503H18.2215V5.84939C18.2215 6.31306 18.597 6.68864 19.0607 6.68864C19.5244 6.68864 19.9 6.31306 19.9 5.84939V5.39503H23.2381V7.57706ZM2.7615 22.5146H23.2381V9.25531H2.7615V22.5146ZM24.0773 3.71654H19.9V3.00575C19.9 2.54208 19.5244 2.1665 19.0607 2.1665C18.597 2.1665 18.2215 2.54208 18.2215 3.00575V3.71654H7.90634V3.00575C7.90634 2.54208 7.53051 2.1665 7.06709 2.1665C6.60343 2.1665 6.22785 2.54208 6.22785 3.00575V3.71654H1.92225C1.45883 3.71654 1.08301 4.09212 1.08301 4.55578V23.3539C1.08301 23.8176 1.45883 24.1931 1.92225 24.1931H24.0773C24.5408 24.1931 24.9166 23.8176 24.9166 23.3539V4.55578C24.9166 4.09212 24.5408 3.71654 24.0773 3.71654Z" fill="white"/>
<path fill-rule="evenodd" clip-rule="evenodd" d="M6.93885 14.7942H19.0607C19.5241 14.7942 19.8997 14.4186 19.8997 13.955C19.8997 13.4915 19.5241 13.1157 19.0607 13.1157H6.93885C6.47519 13.1157 6.09961 13.4915 6.09961 13.955C6.09961 14.4186 6.47519 14.7942 6.93885 14.7942Z" fill="white"/>
<path fill-rule="evenodd" clip-rule="evenodd" d="M6.93885 18.8645H12.9995C13.4632 18.8645 13.8388 18.4889 13.8388 18.0253C13.8388 17.5619 13.4632 17.186 12.9995 17.186H6.93885C6.47519 17.186 6.09961 17.5619 6.09961 18.0253C6.09961 18.4889 6.47519 18.8645 6.93885 18.8645Z" fill="white"/>
</svg>
