<svg width="102" height="162" viewBox="0 0 102 162" fill="none" xmlns="http://www.w3.org/2000/svg">
<path d="M1.5 1.5H86.3787L100.5 15.6213V118.5H1.5V1.5Z" stroke="white" stroke-width="3"/>
<path d="M28.3984 147.383H29.8984C29.8203 148.102 29.6146 148.745 29.2812 149.312C28.9479 149.88 28.4766 150.331 27.8672 150.664C27.2578 150.992 26.4974 151.156 25.5859 151.156C24.9193 151.156 24.3125 151.031 23.7656 150.781C23.224 150.531 22.7578 150.177 22.3672 149.719C21.9766 149.255 21.6745 148.701 21.4609 148.055C21.2526 147.404 21.1484 146.68 21.1484 145.883V144.75C21.1484 143.953 21.2526 143.232 21.4609 142.586C21.6745 141.935 21.9792 141.378 22.375 140.914C22.776 140.451 23.2578 140.094 23.8203 139.844C24.3828 139.594 25.0156 139.469 25.7188 139.469C26.5781 139.469 27.3047 139.63 27.8984 139.953C28.4922 140.276 28.9531 140.724 29.2812 141.297C29.6146 141.865 29.8203 142.523 29.8984 143.273H28.3984C28.3255 142.742 28.1901 142.286 27.9922 141.906C27.7943 141.521 27.513 141.224 27.1484 141.016C26.7839 140.807 26.3073 140.703 25.7188 140.703C25.2135 140.703 24.7682 140.799 24.3828 140.992C24.0026 141.185 23.6823 141.458 23.4219 141.812C23.1667 142.167 22.974 142.591 22.8438 143.086C22.7135 143.581 22.6484 144.13 22.6484 144.734V145.883C22.6484 146.44 22.7057 146.964 22.8203 147.453C22.9401 147.943 23.1198 148.372 23.3594 148.742C23.599 149.112 23.9036 149.404 24.2734 149.617C24.6432 149.826 25.0807 149.93 25.5859 149.93C26.2266 149.93 26.737 149.828 27.1172 149.625C27.4974 149.422 27.7839 149.13 27.9766 148.75C28.1745 148.37 28.3151 147.914 28.3984 147.383ZM35.625 149.273L38.9766 139.625H40.6094L36.3984 151H35.2344L35.625 149.273ZM32.4922 139.625L35.8125 149.273L36.2266 151H35.0625L30.8594 139.625H32.4922ZM53.1875 149.812V151H45.7422V149.961L49.4688 145.812C49.9271 145.302 50.2812 144.87 50.5312 144.516C50.7865 144.156 50.9635 143.836 51.0625 143.555C51.1667 143.268 51.2188 142.977 51.2188 142.68C51.2188 142.305 51.1406 141.966 50.9844 141.664C50.8333 141.357 50.6094 141.112 50.3125 140.93C50.0156 140.747 49.6562 140.656 49.2344 140.656C48.7292 140.656 48.3073 140.755 47.9688 140.953C47.6354 141.146 47.3854 141.417 47.2188 141.766C47.0521 142.115 46.9688 142.516 46.9688 142.969H45.5234C45.5234 142.328 45.6641 141.742 45.9453 141.211C46.2266 140.68 46.6432 140.258 47.1953 139.945C47.7474 139.628 48.4271 139.469 49.2344 139.469C49.9531 139.469 50.5677 139.596 51.0781 139.852C51.5885 140.102 51.9792 140.456 52.25 140.914C52.526 141.367 52.6641 141.898 52.6641 142.508C52.6641 142.841 52.6068 143.18 52.4922 143.523C52.3828 143.862 52.2292 144.201 52.0312 144.539C51.8385 144.878 51.612 145.211 51.3516 145.539C51.0964 145.867 50.8229 146.19 50.5312 146.508L47.4844 149.812H53.1875ZM61.875 144.406V146.141C61.875 147.073 61.7917 147.859 61.625 148.5C61.4583 149.141 61.2188 149.656 60.9062 150.047C60.5938 150.438 60.2161 150.721 59.7734 150.898C59.3359 151.07 58.8411 151.156 58.2891 151.156C57.8516 151.156 57.4479 151.102 57.0781 150.992C56.7083 150.883 56.375 150.708 56.0781 150.469C55.7865 150.224 55.5365 149.906 55.3281 149.516C55.1198 149.125 54.9609 148.651 54.8516 148.094C54.7422 147.536 54.6875 146.885 54.6875 146.141V144.406C54.6875 143.474 54.7708 142.693 54.9375 142.062C55.1094 141.432 55.3516 140.927 55.6641 140.547C55.9766 140.161 56.3516 139.885 56.7891 139.719C57.2318 139.552 57.7266 139.469 58.2734 139.469C58.7161 139.469 59.1224 139.523 59.4922 139.633C59.8672 139.737 60.2005 139.906 60.4922 140.141C60.7839 140.37 61.0312 140.677 61.2344 141.062C61.4427 141.443 61.6016 141.909 61.7109 142.461C61.8203 143.013 61.875 143.661 61.875 144.406ZM60.4219 146.375V144.164C60.4219 143.654 60.3906 143.206 60.3281 142.82C60.2708 142.43 60.1849 142.096 60.0703 141.82C59.9557 141.544 59.8099 141.32 59.6328 141.148C59.4609 140.977 59.2604 140.852 59.0312 140.773C58.8073 140.69 58.5547 140.648 58.2734 140.648C57.9297 140.648 57.625 140.714 57.3594 140.844C57.0938 140.969 56.8698 141.169 56.6875 141.445C56.5104 141.721 56.375 142.083 56.2812 142.531C56.1875 142.979 56.1406 143.523 56.1406 144.164V146.375C56.1406 146.885 56.1693 147.336 56.2266 147.727C56.2891 148.117 56.3802 148.456 56.5 148.742C56.6198 149.023 56.7656 149.255 56.9375 149.438C57.1094 149.62 57.3073 149.755 57.5312 149.844C57.7604 149.927 58.013 149.969 58.2891 149.969C58.6432 149.969 58.9531 149.901 59.2188 149.766C59.4844 149.63 59.7057 149.419 59.8828 149.133C60.0651 148.841 60.2005 148.469 60.2891 148.016C60.3776 147.557 60.4219 147.01 60.4219 146.375ZM71.1875 149.812V151H63.7422V149.961L67.4688 145.812C67.9271 145.302 68.2812 144.87 68.5312 144.516C68.7865 144.156 68.9635 143.836 69.0625 143.555C69.1667 143.268 69.2188 142.977 69.2188 142.68C69.2188 142.305 69.1406 141.966 68.9844 141.664C68.8333 141.357 68.6094 141.112 68.3125 140.93C68.0156 140.747 67.6562 140.656 67.2344 140.656C66.7292 140.656 66.3073 140.755 65.9688 140.953C65.6354 141.146 65.3854 141.417 65.2188 141.766C65.0521 142.115 64.9688 142.516 64.9688 142.969H63.5234C63.5234 142.328 63.6641 141.742 63.9453 141.211C64.2266 140.68 64.6432 140.258 65.1953 139.945C65.7474 139.628 66.4271 139.469 67.2344 139.469C67.9531 139.469 68.5677 139.596 69.0781 139.852C69.5885 140.102 69.9792 140.456 70.25 140.914C70.526 141.367 70.6641 141.898 70.6641 142.508C70.6641 142.841 70.6068 143.18 70.4922 143.523C70.3828 143.862 70.2292 144.201 70.0312 144.539C69.8385 144.878 69.612 145.211 69.3516 145.539C69.0964 145.867 68.8229 146.19 68.5312 146.508L65.4844 149.812H71.1875ZM77.4844 139.562V151H76.0391V141.367L73.125 142.43V141.125L77.2578 139.562H77.4844Z" fill="white"/>
<path d="M20.2109 152.562H80.7812V153.344H20.2109V152.562Z" fill="white"/>
<rect x="23" y="28" width="56" height="4" fill="white"/>
<rect x="23" y="38" width="56" height="4" fill="white"/>
<rect x="23" y="48" width="56" height="4" fill="white"/>
</svg>
