<svg width="336" height="40" viewBox="0 0 336 40" fill="none" xmlns="http://www.w3.org/2000/svg">
<path d="M0 6C0 2.68629 2.68629 0 6 0H72C75.3137 0 78 2.68629 78 6V34C78 37.3137 75.3137 40 72 40H6C2.68629 40 0 37.3137 0 34V6Z" fill="#111111"/>
<path d="M53.4012 28.9893C55.4219 28.9893 56.3729 28.2183 57.2037 25.8811L60.8431 15.6734H58.7359L56.2954 23.5707H56.2526L53.8121 15.6841H51.6452L55.1562 25.3998L54.9682 25.9908C54.8354 26.8367 54.0759 27.4401 53.2211 27.3777C53.058 27.3777 52.7416 27.3608 52.6132 27.3438V28.9483C52.8744 28.9839 53.1382 29.0009 53.4012 29V28.9893ZM46.3791 23.8774C45.2738 23.8774 44.5723 23.3426 44.5723 22.5332C44.5723 21.6944 45.2489 21.206 46.5422 21.1284L48.8455 20.9831V21.7372C48.7947 22.9798 47.7455 23.9469 46.503 23.8961C46.4611 23.8943 46.4201 23.8907 46.3791 23.8872V23.8774ZM45.8229 25.4613C47.077 25.4952 48.25 24.8418 48.8802 23.757H48.923V25.3615H50.8412V18.7164C50.8412 16.7893 49.3001 15.5477 46.9273 15.5477C44.7265 15.5477 43.0989 16.8063 43.0392 18.5364H44.9066C45.1294 17.6566 45.9655 17.0763 46.8676 17.1744C48.1351 17.1744 48.8455 17.7654 48.8455 18.8528V19.5891L46.2605 19.7433C43.8539 19.8886 42.5525 20.8735 42.5525 22.5867C42.5507 24.3239 43.8949 25.4711 45.822 25.4711L45.8229 25.4613ZM34.7068 13.7552H37.0957C38.8944 13.7552 39.9221 14.7143 39.9221 16.4016C39.9221 18.0889 38.8944 19.056 37.0876 19.056H34.7068V13.7552ZM32.6344 12.0081V25.3588H34.7068V20.8075H37.5761C39.9132 20.9332 41.909 19.1407 42.0346 16.8036C42.0418 16.6708 42.0427 16.5389 42.0373 16.4061C42.1479 14.0948 40.3643 12.132 38.053 12.0206C37.9166 12.0144 37.7811 12.0153 37.6447 12.0215L32.6344 12.0081ZM25.7559 14.4994C24.565 14.4308 23.5462 15.176 22.9811 15.176C22.416 15.176 21.5425 14.5342 20.6003 14.552C19.3524 14.5841 18.215 15.2749 17.6116 16.3677C16.3271 18.5774 17.2773 21.8486 18.519 23.6465C19.1269 24.5379 19.856 25.5139 20.8142 25.4791C21.7216 25.4453 22.0817 24.8882 23.1781 24.8882C24.2744 24.8882 24.5998 25.4791 25.5589 25.4613C26.5519 25.4444 27.1776 24.5699 27.7873 23.6786C28.2169 23.0475 28.5512 22.3567 28.7802 21.6285C27.6099 21.1168 26.8513 19.9643 26.8451 18.687C26.8629 17.5604 27.453 16.521 28.4121 15.9301C27.8006 15.0619 26.8193 14.5289 25.7577 14.4914L25.7559 14.4994ZM25.0125 13.3202C24.491 13.9771 23.6933 14.3542 22.8545 14.339C22.801 13.5207 23.0791 12.7159 23.6255 12.1044C24.1693 11.4733 24.9358 11.0775 25.7648 11C25.8236 11.8414 25.5535 12.6722 25.0107 13.3175" fill="white"/>
<path d="M86 6C86 2.68629 88.6863 0 92 0H158C161.314 0 164 2.68629 164 6V34C164 37.3137 161.314 40 158 40H92C88.6863 40 86 37.3137 86 34V6Z" fill="#6461FC"/>
<path fill-rule="evenodd" clip-rule="evenodd" d="M126.477 13.4392L123.453 14.0881V11.6368L126.477 11V13.4392ZM132.764 14.797C131.584 14.797 130.825 15.3498 130.403 15.7343L130.247 14.9893H127.597V29L130.608 28.3631L130.62 24.9626C131.054 25.275 131.692 25.7196 132.752 25.7196C134.908 25.7196 136.872 23.9893 136.872 20.1802C136.86 16.6956 134.872 14.797 132.764 14.797ZM132.041 23.076C131.331 23.076 130.909 22.8236 130.62 22.5112L130.608 18.0533C130.921 17.7048 131.355 17.4645 132.041 17.4645C133.137 17.4645 133.896 18.6901 133.896 20.2642C133.896 21.8744 133.15 23.076 132.041 23.076ZM146.364 20.3004C146.364 17.2243 144.87 14.797 142.015 14.797C139.148 14.797 137.414 17.2243 137.414 20.2763C137.414 23.8932 139.462 25.7196 142.401 25.7196C143.834 25.7196 144.918 25.3952 145.737 24.9385V22.5353C144.918 22.9439 143.979 23.1962 142.786 23.1962C141.618 23.1962 140.582 22.7877 140.449 21.3698H146.339C146.339 21.3036 146.344 21.1534 146.349 20.9803L146.349 20.9798V20.9796L146.349 20.9793L146.349 20.9789L146.349 20.9786L146.349 20.9784C146.356 20.7432 146.364 20.4662 146.364 20.3004ZM140.413 19.1588C140.413 17.801 141.244 17.2362 142.003 17.2362C142.738 17.2362 143.521 17.801 143.521 19.1588H140.413ZM123.453 15.0014H126.476V25.5154H123.453V15.0014ZM120.02 15.0014L120.213 15.8906C120.924 14.5929 122.333 14.8572 122.718 15.0014V17.7651C122.345 17.6329 121.141 17.4647 120.43 18.3899V25.5154H117.418V15.0014H120.02ZM114.19 12.3938L111.251 13.0186L111.239 22.6435C111.239 24.4218 112.576 25.7316 114.359 25.7316C115.346 25.7316 116.069 25.5513 116.467 25.3351V22.8958C116.081 23.052 114.178 23.6048 114.178 21.8264V17.5607H116.467V15.0013H114.178L114.19 12.3938ZM107.071 17.4045C106.433 17.4045 106.048 17.5847 106.048 18.0534C106.048 18.565 106.711 18.7901 107.534 19.0693C108.876 19.5246 110.641 20.1237 110.649 22.3431C110.649 24.494 108.926 25.7316 106.421 25.7316C105.385 25.7316 104.253 25.5273 103.133 25.0467V22.1869C104.144 22.7396 105.421 23.1482 106.421 23.1482C107.095 23.1482 107.577 22.9679 107.577 22.4152C107.577 21.8484 106.858 21.5894 105.99 21.2766C104.668 20.8003 103 20.1995 103 18.1976C103 16.0707 104.626 14.797 107.071 14.797C108.071 14.797 109.059 14.9532 110.059 15.3498V18.1735C109.143 17.6809 107.987 17.4045 107.071 17.4045Z" fill="white"/>
<path d="M172 6C172 2.68629 174.686 0 178 0H244C247.314 0 250 2.68629 250 6V34C250 37.3137 247.314 40 244 40H178C174.686 40 172 37.3137 172 34V6Z" fill="#CCECFF"/>
<path d="M217.401 15.0266C217.401 15.1336 217.401 15.2405 217.294 15.3475C216.438 19.6256 213.658 21.0159 210.021 21.0159H208.203C207.775 21.0159 207.347 21.3368 207.347 21.7646L206.385 27.7539L206.171 29.4652C206.171 29.786 206.385 29.9999 206.599 29.9999H209.914C210.342 29.9999 210.663 29.6791 210.663 29.3582V29.1443L211.305 25.294V25.0801C211.412 24.6523 211.732 24.4384 212.053 24.4384H212.588C215.797 24.4384 218.257 23.155 218.898 19.4117C219.219 17.8074 219.005 16.5239 218.257 15.6683C218.043 15.4544 217.722 15.2405 217.401 15.0266Z" fill="#2199D6"/>
<path d="M216.546 14.7059C216.439 14.7059 216.332 14.5989 216.118 14.5989C216.011 14.5989 215.797 14.492 215.69 14.492C215.155 14.385 214.62 14.385 214.086 14.385H209.166C209.059 14.385 208.952 14.385 208.845 14.492C208.631 14.5989 208.417 14.8128 208.417 15.0267L207.348 21.6578V21.8717C207.455 21.4439 207.775 21.123 208.203 21.123H210.021C213.658 21.123 216.439 19.6257 217.294 15.4545C217.294 15.3476 217.294 15.2406 217.401 15.1337C217.187 15.0267 216.973 14.9198 216.759 14.8128C216.652 14.7059 216.546 14.7059 216.546 14.7059Z" fill="#252C5E"/>
<path d="M208.417 15.0268C208.417 14.8129 208.631 14.5989 208.845 14.492C208.952 14.492 209.059 14.385 209.166 14.385H214.086C214.62 14.385 215.262 14.385 215.69 14.492C215.797 14.492 216.011 14.492 216.118 14.5989C216.225 14.5989 216.332 14.7059 216.546 14.7059C216.652 14.7059 216.652 14.7059 216.759 14.8129C216.973 14.9198 217.187 15.0268 217.401 15.1337C217.615 13.5294 217.401 12.4599 216.546 11.4973C215.583 10.4278 213.872 10 211.733 10H205.422C204.995 10 204.567 10.3209 204.567 10.7487L202 27.2193C202 27.5402 202.214 27.861 202.535 27.861H206.385L207.348 21.6578L208.417 15.0268Z" fill="#263577"/>
<path d="M258 6C258 2.68629 260.686 0 264 0H330C333.314 0 336 2.68629 336 6V34C336 37.3137 333.314 40 330 40H264C260.686 40 258 37.3137 258 34V6Z" fill="#FF7E00"/>
<path d="M296.811 19.2794C297.547 19.5249 299.15 20.059 299.505 18.944C299.867 17.803 298.306 17.3538 297.541 17.1339C297.455 17.1089 297.378 17.087 297.316 17.0672L296.632 19.2207C296.683 19.2368 296.743 19.2569 296.811 19.2794Z" fill="white"/>
<path d="M295.742 22.7486C296.624 23.041 298.553 23.6807 298.943 22.4519C299.343 21.1956 297.467 20.6513 296.552 20.3857C296.45 20.3561 296.36 20.3299 296.286 20.3066L295.531 22.6798C295.592 22.6989 295.662 22.7224 295.742 22.7486Z" fill="white"/>
<path fill-rule="evenodd" clip-rule="evenodd" d="M306.979 20.6251C306.634 26.1369 301.886 30.3253 296.374 29.9801C290.863 29.6349 286.675 24.8868 287.02 19.3749C287.365 13.8631 292.113 9.67468 297.625 10.0199C303.136 10.3651 307.324 15.1132 306.979 20.6251ZM299.629 16.4422C300.988 17.0059 301.958 17.7833 301.676 19.0993C301.47 20.0631 300.9 20.4997 300.17 20.6194C301.125 21.1928 301.4 22.185 301.014 23.3396C300.315 24.9922 298.896 25.0462 297.043 24.5755L296.473 26.3634L295.391 26.0212L295.953 24.2573C295.672 24.1689 295.385 24.0752 295.09 23.9759L294.527 25.7485L293.445 25.4064L294.014 23.6147L291.835 22.9194L292.459 21.6994C292.459 21.6994 293.257 21.9642 293.246 21.9479C293.553 22.0441 293.704 21.8506 293.767 21.7199L295.31 16.867C295.338 16.6351 295.276 16.3368 294.837 16.1978C294.855 16.187 294.051 15.95 294.051 15.95L294.417 14.7983L296.6 15.4845L297.164 13.7131L298.246 14.0553L297.693 15.7916C297.985 15.8769 298.278 15.9635 298.562 16.0534L299.11 14.328L300.192 14.6702L299.629 16.4422Z" fill="white"/>
</svg>
