<svg width="24" height="24" viewBox="0 0 24 24" fill="none" xmlns="http://www.w3.org/2000/svg">
<rect width="24" height="24" fill="white" fill-opacity="0.01"/>
<path fill-rule="evenodd" clip-rule="evenodd" d="M2.67945 7.53207C3.14353 5.11252 4.80542 3.54932 6.91265 3.54932C8.34035 3.54932 9.93766 4.23923 11.532 5.54318C11.8154 5.77511 12.2235 5.77624 12.509 5.54634C14.0882 4.27152 15.6717 3.59764 17.0884 3.59764C19.1895 3.59764 20.8498 5.14188 21.318 7.53207C22.1018 11.5345 19.5212 16.9454 12.0194 20.1097C4.49919 17.0027 1.90327 11.5758 2.67945 7.53207ZM11.7358 21.6663C11.8277 21.7031 11.925 21.7211 12.0223 21.7211C12.1217 21.7211 12.2208 21.702 12.3146 21.6642C20.855 18.1858 23.754 11.9106 22.8383 7.23454C22.2213 4.08419 19.9644 2.04855 17.0884 2.04855C15.4694 2.04855 13.7292 2.70798 12.0257 3.9627C10.3051 2.67682 8.54747 2 6.91268 2C4.02769 2 1.76893 4.05709 1.15805 7.23996C0.252018 11.961 3.17111 18.2528 11.7358 21.6663Z" fill="white"/>
</svg>
